<svg xmlns="http://www.w3.org/2000/svg" xmlns:xlink="http://www.w3.org/1999/xlink" width="1920" zoomAndPan="magnify" viewBox="0 0 1440 809.999993" height="1080" preserveAspectRatio="xMidYMid meet" version="1.2"><defs><clipPath id="74ed848f13"><path d="M 446.730469 131.96875 L 991.980469 131.96875 L 991.980469 676.980469 L 446.730469 676.980469 Z M 446.730469 131.96875 "/></clipPath><clipPath id="3d5e5dcd94"><path d="M 797 494 L 991.980469 494 L 991.980469 676.980469 L 797 676.980469 Z M 797 494 "/></clipPath><clipPath id="2784b1a072"><path d="M 525 252 L 863 252 L 863 467 L 525 467 Z M 525 252 "/></clipPath><clipPath id="6b86a948c3"><path d="M 496.566406 421.996094 L 833.90625 207.613281 L 890.777344 297.105469 L 553.4375 511.484375 Z M 496.566406 421.996094 "/></clipPath><clipPath id="f745f430b6"><path d="M 665.082031 314.902344 L 862.035156 252.554688 L 721.953125 404.390625 L 525.003906 466.738281 Z M 665.082031 314.902344 "/></clipPath></defs><g id="257dce9828"><g clip-rule="nonzero" clip-path="url(#74ed848f13)"><path style=" stroke:none;fill-rule:evenodd;fill:#e498f9;fill-opacity:1;" d="M 442.941406 676.964844 L 437.238281 91.5625 L 995.863281 89.179688 L 996.433594 494.617188 L 897.300781 575.417969 L 797.90625 676.964844 Z M 442.941406 676.964844 "/></g><g clip-rule="nonzero" clip-path="url(#3d5e5dcd94)"><path style=" stroke:none;fill-rule:evenodd;fill:#f3ddf9;fill-opacity:1;" d="M 797.90625 676.964844 C 797.90625 676.964844 854.808594 559.492188 815.710938 498.480469 C 873.601562 505.714844 933.527344 505.839844 996.695312 494.617188 Z M 797.90625 676.964844 "/></g><path style="fill:none;stroke-width:25;stroke-linecap:round;stroke-linejoin:miter;stroke:#5f0191;stroke-opacity:1;stroke-miterlimit:4;" d="M 12.501667 12.501073 L 327.929435 12.498618 " transform="matrix(0.705393,-0.252046,0.252046,0.705393,486.151662,476.461724)"/><path style="fill:none;stroke-width:25;stroke-linecap:round;stroke-linejoin:miter;stroke:#5f0191;stroke-opacity:1;stroke-miterlimit:4;" d="M 12.502076 12.499392 L 322.035267 12.498476 " transform="matrix(0.531586,-0.529071,0.529071,0.531586,712.80741,398.012959)"/><path style="fill:none;stroke-width:25;stroke-linecap:round;stroke-linejoin:miter;stroke:#5f0191;stroke-opacity:1;stroke-miterlimit:4;" d="M 12.497911 12.501235 L 322.031102 12.500319 " transform="matrix(0.531586,-0.529071,0.529071,0.531586,486.816462,481.322276)"/><path style="fill:none;stroke-width:25;stroke-linecap:round;stroke-linejoin:miter;stroke:#5f0191;stroke-opacity:1;stroke-miterlimit:4;" d="M 12.500213 12.500932 L 329.961153 12.500869 " transform="matrix(0.702498,-0.259825,0.259825,0.702498,654.767445,310.583179)"/><path style="fill:none;stroke-width:25;stroke-linecap:round;stroke-linejoin:miter;stroke:#5f0191;stroke-opacity:1;stroke-miterlimit:4;" d="M 12.498622 12.499472 L 125.128254 12.497722 " transform="matrix(0.40227,0.632992,-0.632992,0.40227,589.630345,448.236093)"/><path style="fill:none;stroke-width:25;stroke-linecap:round;stroke-linejoin:miter;stroke:#5f0191;stroke-opacity:1;stroke-miterlimit:4;" d="M 12.501603 12.498814 L 89.312765 12.499389 " transform="matrix(0.40227,0.632992,-0.632992,0.40227,868.812323,245.742284)"/><path style="fill:none;stroke-width:25;stroke-linecap:round;stroke-linejoin:miter;stroke:#5f0191;stroke-opacity:1;stroke-miterlimit:4;" d="M 12.501893 12.499701 L 125.128732 12.502347 " transform="matrix(0.40227,0.632992,-0.632992,0.40227,837.32058,295.081587)"/><path style="fill:none;stroke-width:25;stroke-linecap:round;stroke-linejoin:miter;stroke:#5f0191;stroke-opacity:1;stroke-miterlimit:4;" d="M 15.966012 15.772328 C 149.188995 58.239338 274.708911 58.374298 392.535724 16.171173 " transform="matrix(0.634181,-0.401574,0.399779,0.631346,619.084847,532.449833)"/><g clip-rule="nonzero" clip-path="url(#2784b1a072)"><g clip-rule="nonzero" clip-path="url(#6b86a948c3)"><g clip-rule="nonzero" clip-path="url(#f745f430b6)"><path style=" stroke:none;fill-rule:nonzero;fill:#5f0191;fill-opacity:1;" d="M 496.566406 421.996094 L 833.554688 207.835938 L 890.425781 297.328125 L 553.4375 511.484375 Z M 496.566406 421.996094 "/></g></g></g></g></svg>